:SAMPLES-PER-SECOND 30
:FULLY-SPECIFIED
:DEGREES
340
root  20.3089 31.1764 35.6094 -165.41 -23.5419 177.129
RightUpLeg  -21.9593 -9.2838 -16.4266
RightLeg  37.8776 5.3755 3.62412
RightFoot  -11.4922 -0.132841 -0.942602
RightToes  -57.4786 -0.370897 -0.391201
Spine  6.84536 -0.443044 1.84293
Spine1  13.0918 0.285676 0.886444
HEad  -11.204 -2.01309 8.32777
LeftShoulder1  0 -2.42657e-020 -4.95415e-022
LeftArm  -23.0012 17.246 -81.7662
LeftForeArm  21.9248 -44.9963 -10.165
LeftHand  -0.0721581 -2.04601 3.68186
RightShoulder  0 2.42657e-020 1.07489e-018
RightArm  -39.9438 -1.3632 77.7346
RightForeArm  40.9812 24.1725 4.52234
RightHand  -0.223888 18.5754 -0.999311
LeftUpLeg  -33.0477 -12.2018 20.433
LeftLeg  35.695 -1.71835 -1.0786
LeftFoot  -5.31415 -0.00570464 -0.122933
LeftToes  -24.2484 9.37529e-007 1.1992e-007
341
root  21.7586 31.8028 35.684 -165.273 -22.8678 177.25
RightUpLeg  -23.2157 -5.94632 -13.6979
RightLeg  36.7806 3.01731 1.94799
RightFoot  -9.78738 -0.0627028 -0.354812
RightToes  -53.731 -0.336376 -0.378867
Spine  6.43106 -0.668973 1.80886
Spine1  12.3332 -0.390467 1.11458
HEad  -6.78494 -1.10704 8.41208
LeftShoulder1  0 -2.42657e-020 -4.95415e-022
LeftArm  -23.7328 19.7347 -82.6745
LeftForeArm  25.5187 -45.1516 -10.2214
LeftHand  -0.102485 -3.45405 3.03417
RightShoulder  0 2.42657e-020 1.07489e-018
RightArm  -44.5609 -2.2345 77.5174
RightForeArm  43.464 20.7704 3.81451
RightHand  -0.33343 18.5174 -1.67573
LeftUpLeg  -29.836 -10.4398 17.8293
LeftLeg  34.0525 -0.837295 -0.494962
LeftFoot  -7.44966 -0.0112513 -0.172834
LeftToes  -21.7598 9.37529e-007 1.1992e-007
342
root  23.0524 32.3572 35.736 -165.511 -22.5086 177.497
RightUpLeg  -23.1498 -3.48793 -11.1598
RightLeg  34.5002 0.892876 0.518487
RightFoot  -8.05073 -0.0256547 0.0129913
RightToes  -49.8087 -0.301189 -0.36357
Spine  6.15414 -0.939453 1.85797
Spine1  11.8456 -1.1858 1.55009
HEad  -3.365 -0.785499 7.94651
LeftShoulder1  0 -2.42657e-020 -4.95415e-022
LeftArm  -24.0945 21.3598 -83.4055
LeftForeArm  29.315 -46.1058 -10.5725
LeftHand  -0.162153 -4.23787 4.01711
RightShoulder  0 2.42657e-020 1.07489e-018
RightArm  -48.6426 -3.78981 76.7704
RightForeArm  48.5469 19.4876 3.54989
RightHand  -0.309111 18.8954 -1.48792
LeftUpLeg  -26.7302 -7.72184 14.0897
LeftLeg  34.8972 -1.0035 -0.612522
LeftFoot  -8.41739 -0.00637365 -0.0866217
LeftToes  -21.8321 9.37529e-007 1.1992e-007
343
root  24.1908 32.782 35.7681 -165.826 -23.0241 177.389
RightUpLeg  -22.2107 -2.40233 -9.26117
RightLeg  31.8906 -0.594792 -0.329828
RightFoot  -6.74674 -0.0131004 0.155316
RightToes  -47.2124 -0.278508 -0.352135
Spine  5.95598 -1.33387 1.9458
Spine1  11.5157 -2.24994 2.13766
HEad  -0.586005 -1.1118 7.12972
LeftShoulder1  0 -2.42657e-020 -4.95415e-022
LeftArm  -23.7747 21.705 -83.9495
LeftForeArm  31.807 -46.7531 -10.8174
LeftHand  -0.226829 -4.77722 5.07115
RightShoulder  0 2.42657e-020 1.07489e-018
RightArm  -49.0118 -5.84382 74.936
RightForeArm  49.5818 19.1529 3.48183
RightHand  -0.426899 19.1729 -2.15792
LeftUpLeg  -23.6608 -5.54087 9.59473
LeftLeg  36.3791 -0.710291 -0.460636
LeftFoot  -9.71535 -0.00551701 -0.0649256
LeftToes  -20.3457 9.37529e-007 1.1992e-007
344
root  25.2485 33.0533 35.8124 -166.252 -23.8463 177.364
RightUpLeg  -21.5217 -2.12902 -7.55416
RightLeg  30.2148 -1.27915 -0.647471
RightFoot  -5.84968 -0.0110183 0.161915
RightToes  -45.5841 -0.264557 -0.344445
Spine  5.69834 -1.72666 2.07755
Spine1  11.046 -3.27087 2.76554
HEad  2.32677 -1.41045 6.50471
LeftShoulder1  0 -2.42657e-020 -4.95415e-022
LeftArm  -22.8925 21.4804 -84.1856
LeftForeArm  32.6397 -47.4606 -11.093
LeftHand  -0.26337 -5.06303 5.58933
RightShoulder  0 2.42657e-020 1.07489e-018
RightArm  -48.0528 -8.55347 72.9086
RightForeArm  48.2184 19.6542 3.58354
RightHand  -0.533658 19.181 -2.78849
LeftUpLeg  -20.3855 -3.44362 5.10163
LeftLeg  37.5383 0.470823 0.310953
LeftFoot  -10.602 -0.0245268 -0.264348
LeftToes  -17.9176 9.37529e-007 1.1992e-007
345
root  26.3155 33.2148 35.8646 -166.851 -24.7605 177.974
RightUpLeg  -21.0555 -2.2378 -5.23509
RightLeg  28.8693 -1.76017 -0.835071
RightFoot  -5.28838 -0.00945114 0.149326
RightToes  -42.9353 -0.242346 -0.331096
Spine  5.44096 -2.02421 2.43012
Spine1  10.5424 -4.07384 3.76292
HEad  4.6495 -1.59664 6.03699
LeftShoulder1  0 -2.42657e-020 -4.95415e-022
LeftArm  -21.074 20.5833 -84.2722
LeftForeArm  33.0461 -47.8873 -11.263
LeftHand  -0.276535 -4.90836 6.08392
RightShoulder  0 2.42657e-020 1.07489e-018
RightArm  -46.6322 -11.3226 70.7607
RightForeArm  45.895 20.488 3.75405
RightHand  -0.706095 18.2567 -4.02368
LeftUpLeg  -16.863 -1.27544 1.39492
LeftLeg  37.6458 2.93323 1.96926
LeftFoot  -12.3427 -0.095106 -0.879557
LeftToes  -13.5051 9.37529e-007 1.1992e-007
346
root  27.347 33.2988 35.9502 -167.366 -25.5953 178.601
RightUpLeg  -21.0307 -2.09009 -3.01239
RightLeg  27.9169 -2.45356 -1.11044
RightFoot  -4.92886 -0.00920171 0.163773
RightToes  -40.7508 -0.224508 -0.319324
Spine  5.21498 -2.30539 2.74973
Spine1  10.0713 -4.7945 4.61195
HEad  6.46652 -1.74914 6.23864
LeftShoulder1  0 -2.42657e-020 -4.95415e-022
LeftArm  -19.2893 19.3829 -84.1699
LeftForeArm  33.9791 -48.3712 -11.4591
LeftHand  -0.310697 -5.12504 6.57276
RightShoulder  0 2.42657e-020 1.07489e-018
RightArm  -47.2688 -13.2593 69.0284
RightForeArm  44.9821 20.4682 3.75142
RightHand  -0.826636 17.8854 -4.88133
LeftUpLeg  -13.1685 2.00928 -1.94649
LeftLeg  36.3751 5.55911 3.55312
LeftFoot  -13.598 -0.19691 -1.65148
LeftToes  -10.1711 9.37529e-007 1.1992e-007
